<svg xmlns="http://www.w3.org/2000/svg" xmlns:xlink="http://www.w3.org/1999/xlink" width="500" zoomAndPan="magnify" viewBox="0 0 375 374.999991" height="500" preserveAspectRatio="xMidYMid meet" version="1.0"><defs><g/><clipPath id="ee843bf5d7"><path d="M 26 20 L 349.460938 20 L 349.460938 298 L 26 298 Z M 26 20 " clip-rule="nonzero"/></clipPath></defs><g clip-path="url(#ee843bf5d7)"><path fill="#424242" d="M 187.820312 20.109375 C 181.132812 20.109375 174.449219 23.34375 170.761719 29.824219 L 35.203125 268.234375 C 27.835938 281.199219 37.367188 298 52.269531 298 L 323.367188 298 C 338.269531 298 347.800781 281.1875 340.433594 268.222656 L 204.875 29.824219 C 201.1875 23.34375 194.503906 20.109375 187.820312 20.109375 Z M 187.820312 32.542969 C 190.023438 32.542969 192.230469 33.773438 193.628906 36.230469 L 329.191406 274.617188 L 329.175781 274.617188 C 331.96875 279.527344 328.789062 285.0625 323.367188 285.0625 L 52.269531 285.0625 C 46.851562 285.0625 43.660156 279.53125 46.445312 274.628906 L 182.007812 36.230469 C 183.40625 33.773438 185.613281 32.542969 187.820312 32.542969 Z M 84.335938 32.71875 C 83.71875 32.710938 83.113281 32.789062 82.519531 32.957031 C 81.925781 33.121094 81.367188 33.367188 80.84375 33.691406 C 80.320312 34.019531 79.851562 34.410156 79.441406 34.871094 C 79.027344 35.328125 78.6875 35.835938 78.421875 36.394531 C 78.15625 36.949219 77.972656 37.53125 77.875 38.140625 C 77.773438 38.75 77.761719 39.359375 77.835938 39.972656 C 77.914062 40.585938 78.070312 41.175781 78.316406 41.742188 C 78.558594 42.308594 78.878906 42.828125 79.269531 43.304688 L 105.144531 75.648438 C 105.410156 75.980469 105.703125 76.28125 106.027344 76.558594 C 106.355469 76.832031 106.703125 77.070312 107.074219 77.277344 C 107.449219 77.480469 107.835938 77.648438 108.242188 77.777344 C 108.648438 77.90625 109.058594 77.992188 109.484375 78.039062 C 109.90625 78.085938 110.328125 78.09375 110.753906 78.058594 C 111.175781 78.019531 111.59375 77.945312 112 77.824219 C 112.410156 77.707031 112.800781 77.550781 113.179688 77.355469 C 113.554688 77.160156 113.910156 76.929688 114.242188 76.664062 C 114.574219 76.398438 114.878906 76.101562 115.152344 75.777344 C 115.425781 75.449219 115.664062 75.101562 115.871094 74.730469 C 116.074219 74.355469 116.242188 73.96875 116.371094 73.5625 C 116.5 73.15625 116.585938 72.742188 116.632812 72.320312 C 116.679688 71.898438 116.683594 71.476562 116.648438 71.050781 C 116.613281 70.628906 116.535156 70.210938 116.414062 69.804688 C 116.296875 69.394531 116.140625 69.003906 115.945312 68.625 C 115.746094 68.25 115.515625 67.894531 115.25 67.5625 L 89.375 35.21875 C 88.769531 34.441406 88.027344 33.832031 87.140625 33.390625 C 86.257812 32.953125 85.324219 32.726562 84.335938 32.71875 Z M 291.113281 32.730469 C 290.160156 32.769531 289.257812 33.003906 288.410156 33.4375 C 287.5625 33.875 286.847656 34.46875 286.261719 35.21875 L 260.386719 67.5625 C 260.121094 67.894531 259.890625 68.25 259.695312 68.625 C 259.5 69.003906 259.34375 69.394531 259.222656 69.804688 C 259.105469 70.210938 259.027344 70.628906 258.992188 71.050781 C 258.957031 71.472656 258.960938 71.898438 259.007812 72.320312 C 259.054688 72.742188 259.144531 73.15625 259.269531 73.558594 C 259.398438 73.964844 259.566406 74.355469 259.769531 74.726562 C 259.976562 75.097656 260.214844 75.445312 260.488281 75.773438 C 260.761719 76.097656 261.066406 76.394531 261.398438 76.65625 C 261.730469 76.921875 262.082031 77.152344 262.460938 77.351562 C 262.839844 77.546875 263.230469 77.703125 263.640625 77.820312 C 264.046875 77.9375 264.464844 78.015625 264.886719 78.050781 C 265.308594 78.089844 265.734375 78.082031 266.15625 78.035156 C 266.578125 77.988281 266.992188 77.902344 267.394531 77.773438 C 267.800781 77.644531 268.191406 77.476562 268.5625 77.273438 C 268.933594 77.070312 269.28125 76.828125 269.609375 76.554688 C 269.933594 76.28125 270.226562 75.980469 270.492188 75.648438 L 296.367188 43.304688 C 296.765625 42.824219 297.085938 42.292969 297.328125 41.71875 C 297.570312 41.144531 297.730469 40.546875 297.800781 39.929688 C 297.871094 39.308594 297.851562 38.691406 297.742188 38.074219 C 297.636719 37.460938 297.441406 36.875 297.164062 36.316406 C 296.886719 35.757812 296.535156 35.25 296.113281 34.789062 C 295.6875 34.332031 295.207031 33.945312 294.667969 33.628906 C 294.132812 33.308594 293.558594 33.074219 292.957031 32.921875 C 292.351562 32.769531 291.734375 32.707031 291.113281 32.730469 Z M 45.285156 78.035156 C 44.558594 78.050781 43.855469 78.1875 43.175781 78.441406 C 42.496094 78.695312 41.875 79.050781 41.316406 79.511719 C 40.753906 79.976562 40.285156 80.515625 39.90625 81.136719 C 39.53125 81.757812 39.265625 82.421875 39.109375 83.132812 C 38.957031 83.839844 38.921875 84.554688 39.011719 85.277344 C 39.097656 86 39.300781 86.683594 39.617188 87.335938 C 39.9375 87.992188 40.351562 88.574219 40.867188 89.085938 C 41.382812 89.597656 41.964844 90.011719 42.621094 90.328125 L 81.429688 109.734375 C 81.808594 109.921875 82.203125 110.074219 82.613281 110.1875 C 83.023438 110.300781 83.441406 110.371094 83.867188 110.402344 C 84.289062 110.433594 84.710938 110.421875 85.132812 110.367188 C 85.554688 110.316406 85.96875 110.222656 86.371094 110.089844 C 86.773438 109.953125 87.160156 109.78125 87.53125 109.570312 C 87.898438 109.359375 88.246094 109.117188 88.566406 108.839844 C 88.886719 108.558594 89.179688 108.253906 89.4375 107.917969 C 89.699219 107.582031 89.925781 107.222656 90.117188 106.84375 C 90.304688 106.460938 90.457031 106.066406 90.570312 105.65625 C 90.679688 105.246094 90.753906 104.832031 90.78125 104.40625 C 90.8125 103.984375 90.800781 103.558594 90.746094 103.136719 C 90.695312 102.714844 90.601562 102.304688 90.464844 101.902344 C 90.332031 101.496094 90.15625 101.113281 89.949219 100.742188 C 89.738281 100.375 89.492188 100.027344 89.214844 99.707031 C 88.933594 99.386719 88.625 99.097656 88.289062 98.835938 C 87.953125 98.574219 87.597656 98.351562 87.214844 98.160156 L 48.40625 78.753906 C 47.425781 78.25 46.386719 78.007812 45.285156 78.035156 Z M 330.148438 78.035156 C 329.121094 78.042969 328.148438 78.28125 327.230469 78.753906 L 288.421875 98.160156 C 288.039062 98.351562 287.683594 98.574219 287.347656 98.835938 C 287.011719 99.097656 286.703125 99.386719 286.425781 99.707031 C 286.148438 100.027344 285.902344 100.375 285.691406 100.742188 C 285.480469 101.113281 285.308594 101.496094 285.175781 101.902344 C 285.039062 102.304688 284.945312 102.714844 284.894531 103.136719 C 284.839844 103.558594 284.828125 103.980469 284.859375 104.40625 C 284.886719 104.828125 284.960938 105.246094 285.070312 105.65625 C 285.183594 106.066406 285.335938 106.460938 285.523438 106.839844 C 285.714844 107.222656 285.941406 107.578125 286.199219 107.914062 C 286.460938 108.25 286.753906 108.558594 287.074219 108.835938 C 287.394531 109.113281 287.738281 109.359375 288.109375 109.570312 C 288.476562 109.78125 288.863281 109.953125 289.265625 110.085938 C 289.671875 110.21875 290.082031 110.3125 290.503906 110.367188 C 290.925781 110.421875 291.347656 110.429688 291.773438 110.402344 C 292.195312 110.371094 292.613281 110.300781 293.023438 110.1875 C 293.433594 110.074219 293.828125 109.921875 294.207031 109.734375 L 333.019531 90.328125 C 333.679688 90.007812 334.269531 89.585938 334.785156 89.066406 C 335.304688 88.546875 335.722656 87.953125 336.039062 87.292969 C 336.355469 86.628906 336.554688 85.933594 336.632812 85.203125 C 336.710938 84.472656 336.667969 83.75 336.5 83.035156 C 336.335938 82.320312 336.054688 81.652344 335.660156 81.03125 C 335.265625 80.410156 334.78125 79.875 334.203125 79.421875 C 333.625 78.964844 332.988281 78.621094 332.292969 78.382812 C 331.597656 78.144531 330.882812 78.03125 330.148438 78.035156 Z M 181.335938 110.414062 C 177.765625 110.414062 174.882812 113.3125 174.882812 116.882812 L 174.882812 207.441406 C 174.882812 211.011719 177.746094 213.910156 181.324219 213.910156 L 194.289062 213.910156 C 197.859375 213.910156 200.742188 211.011719 200.742188 207.441406 L 200.753906 116.882812 C 200.753906 113.3125 197.875 110.414062 194.300781 110.414062 Z M 32.574219 136.289062 C 32.148438 136.28125 31.722656 136.320312 31.300781 136.398438 C 30.878906 136.476562 30.46875 136.59375 30.070312 136.753906 C 29.675781 136.914062 29.296875 137.113281 28.9375 137.347656 C 28.578125 137.582031 28.246094 137.851562 27.941406 138.152344 C 27.636719 138.453125 27.363281 138.78125 27.125 139.136719 C 26.882812 139.492188 26.679688 139.867188 26.515625 140.261719 C 26.351562 140.65625 26.226562 141.0625 26.140625 141.484375 C 26.058594 141.90625 26.015625 142.328125 26.015625 142.757812 C 26.015625 143.1875 26.058594 143.609375 26.140625 144.03125 C 26.226562 144.453125 26.351562 144.859375 26.515625 145.253906 C 26.679688 145.648438 26.882812 146.023438 27.125 146.378906 C 27.363281 146.734375 27.636719 147.0625 27.941406 147.363281 C 28.246094 147.664062 28.578125 147.933594 28.9375 148.167969 C 29.296875 148.402344 29.675781 148.601562 30.070312 148.761719 C 30.46875 148.921875 30.878906 149.039062 31.300781 149.117188 C 31.722656 149.195312 32.148438 149.230469 32.574219 149.226562 L 71.386719 149.226562 C 71.816406 149.230469 72.238281 149.195312 72.660156 149.117188 C 73.082031 149.039062 73.492188 148.921875 73.890625 148.761719 C 74.289062 148.601562 74.664062 148.402344 75.023438 148.167969 C 75.382812 147.933594 75.714844 147.664062 76.019531 147.363281 C 76.324219 147.0625 76.597656 146.734375 76.835938 146.378906 C 77.078125 146.023438 77.28125 145.648438 77.445312 145.253906 C 77.609375 144.859375 77.734375 144.453125 77.820312 144.03125 C 77.90625 143.609375 77.945312 143.1875 77.945312 142.757812 C 77.945312 142.328125 77.90625 141.90625 77.820312 141.484375 C 77.734375 141.0625 77.609375 140.65625 77.445312 140.261719 C 77.28125 139.867188 77.078125 139.492188 76.835938 139.136719 C 76.597656 138.78125 76.324219 138.453125 76.019531 138.152344 C 75.714844 137.851562 75.382812 137.582031 75.023438 137.347656 C 74.664062 137.113281 74.289062 136.914062 73.890625 136.753906 C 73.492188 136.59375 73.082031 136.476562 72.660156 136.398438 C 72.238281 136.320312 71.816406 136.28125 71.386719 136.289062 Z M 304.25 136.289062 C 303.824219 136.28125 303.398438 136.320312 302.976562 136.398438 C 302.554688 136.476562 302.144531 136.59375 301.746094 136.753906 C 301.351562 136.914062 300.972656 137.113281 300.613281 137.347656 C 300.253906 137.582031 299.921875 137.851562 299.617188 138.152344 C 299.3125 138.453125 299.039062 138.78125 298.800781 139.136719 C 298.558594 139.492188 298.355469 139.867188 298.191406 140.261719 C 298.027344 140.65625 297.902344 141.0625 297.816406 141.484375 C 297.734375 141.90625 297.691406 142.328125 297.691406 142.757812 C 297.691406 143.1875 297.734375 143.609375 297.816406 144.03125 C 297.902344 144.453125 298.027344 144.859375 298.191406 145.253906 C 298.355469 145.648438 298.558594 146.023438 298.800781 146.378906 C 299.039062 146.734375 299.3125 147.0625 299.617188 147.363281 C 299.921875 147.664062 300.253906 147.933594 300.613281 148.167969 C 300.972656 148.402344 301.351562 148.601562 301.746094 148.761719 C 302.144531 148.921875 302.554688 149.039062 302.976562 149.117188 C 303.398438 149.195312 303.824219 149.230469 304.25 149.226562 L 343.0625 149.226562 C 343.492188 149.230469 343.914062 149.195312 344.335938 149.117188 C 344.757812 149.039062 345.167969 148.921875 345.566406 148.761719 C 345.964844 148.601562 346.339844 148.402344 346.699219 148.167969 C 347.058594 147.933594 347.390625 147.664062 347.695312 147.363281 C 348 147.0625 348.273438 146.734375 348.511719 146.378906 C 348.753906 146.023438 348.957031 145.648438 349.121094 145.253906 C 349.285156 144.859375 349.410156 144.453125 349.496094 144.03125 C 349.582031 143.609375 349.621094 143.1875 349.621094 142.757812 C 349.621094 142.328125 349.582031 141.90625 349.496094 141.484375 C 349.410156 141.0625 349.285156 140.65625 349.121094 140.261719 C 348.957031 139.867188 348.753906 139.492188 348.511719 139.136719 C 348.273438 138.78125 348 138.453125 347.695312 138.152344 C 347.390625 137.851562 347.058594 137.582031 346.699219 137.347656 C 346.339844 137.113281 345.964844 136.914062 345.566406 136.753906 C 345.167969 136.59375 344.757812 136.476562 344.335938 136.398438 C 343.914062 136.320312 343.492188 136.28125 343.0625 136.289062 Z M 181.335938 233.316406 C 177.765625 233.316406 174.882812 236.214844 174.882812 239.785156 L 174.882812 252.722656 C 174.882812 256.292969 177.761719 259.191406 181.335938 259.191406 L 194.300781 259.191406 C 197.871094 259.191406 200.753906 256.292969 200.753906 252.722656 L 200.753906 239.785156 C 200.753906 236.214844 197.875 233.316406 194.300781 233.316406 Z M 181.335938 233.316406 " fill-opacity="1" fill-rule="nonzero"/></g><g fill="#424242" fill-opacity="1"><g transform="translate(62.079676, 350.624977)"><g><path d="M 16.1875 -9.5625 L 13.109375 -17.96875 C 12.953125 -18.34375 12.789062 -18.785156 12.625 -19.296875 C 12.46875 -19.816406 12.304688 -20.375 12.140625 -20.96875 C 11.992188 -20.375 11.835938 -19.816406 11.671875 -19.296875 C 11.503906 -18.773438 11.347656 -18.320312 11.203125 -17.9375 L 8.140625 -9.5625 Z M 24.5 0 L 20.859375 0 C 20.453125 0 20.117188 -0.0976562 19.859375 -0.296875 C 19.609375 -0.503906 19.414062 -0.757812 19.28125 -1.0625 L 17.390625 -6.234375 L 6.90625 -6.234375 L 5.015625 -1.0625 C 4.921875 -0.800781 4.738281 -0.554688 4.46875 -0.328125 C 4.207031 -0.109375 3.878906 0 3.484375 0 L -0.1875 0 L 9.765625 -25.3125 L 14.5625 -25.3125 Z M 24.5 0 "/></g></g></g><g fill="#424242" fill-opacity="1"><g transform="translate(86.381684, 350.624977)"><g><path d="M 6.171875 -15.75 C 6.535156 -16.113281 6.914062 -16.445312 7.3125 -16.75 C 7.71875 -17.0625 8.144531 -17.328125 8.59375 -17.546875 C 9.050781 -17.765625 9.535156 -17.929688 10.046875 -18.046875 C 10.554688 -18.171875 11.113281 -18.234375 11.71875 -18.234375 C 12.695312 -18.234375 13.566406 -18.066406 14.328125 -17.734375 C 15.085938 -17.398438 15.722656 -16.929688 16.234375 -16.328125 C 16.742188 -15.734375 17.128906 -15.019531 17.390625 -14.1875 C 17.648438 -13.351562 17.78125 -12.429688 17.78125 -11.421875 L 17.78125 0 L 13.453125 0 L 13.453125 -11.421875 C 13.453125 -12.523438 13.203125 -13.375 12.703125 -13.96875 C 12.203125 -14.570312 11.4375 -14.875 10.40625 -14.875 C 9.664062 -14.875 8.96875 -14.703125 8.3125 -14.359375 C 7.65625 -14.023438 7.035156 -13.566406 6.453125 -12.984375 L 6.453125 0 L 2.140625 0 L 2.140625 -17.953125 L 4.78125 -17.953125 C 5.34375 -17.953125 5.707031 -17.691406 5.875 -17.171875 Z M 6.171875 -15.75 "/></g></g></g><g fill="#424242" fill-opacity="1"><g transform="translate(106.117225, 350.624977)"><g/></g></g><g fill="#424242" fill-opacity="1"><g transform="translate(114.620299, 350.624977)"><g><path d="M 13.703125 -11.046875 C 13.703125 -11.597656 13.625 -12.125 13.46875 -12.625 C 13.3125 -13.125 13.070312 -13.554688 12.75 -13.921875 C 12.4375 -14.296875 12.035156 -14.59375 11.546875 -14.8125 C 11.066406 -15.03125 10.507812 -15.140625 9.875 -15.140625 C 8.625 -15.140625 7.640625 -14.78125 6.921875 -14.0625 C 6.203125 -13.351562 5.742188 -12.347656 5.546875 -11.046875 Z M 5.453125 -8.4375 C 5.523438 -7.507812 5.6875 -6.710938 5.9375 -6.046875 C 6.195312 -5.378906 6.535156 -4.828125 6.953125 -4.390625 C 7.378906 -3.953125 7.878906 -3.625 8.453125 -3.40625 C 9.035156 -3.1875 9.675781 -3.078125 10.375 -3.078125 C 11.070312 -3.078125 11.675781 -3.15625 12.1875 -3.3125 C 12.695312 -3.476562 13.140625 -3.660156 13.515625 -3.859375 C 13.898438 -4.066406 14.234375 -4.25 14.515625 -4.40625 C 14.796875 -4.570312 15.070312 -4.65625 15.34375 -4.65625 C 15.707031 -4.65625 15.976562 -4.519531 16.15625 -4.25 L 17.390625 -2.671875 C 16.910156 -2.117188 16.375 -1.648438 15.78125 -1.265625 C 15.1875 -0.890625 14.566406 -0.585938 13.921875 -0.359375 C 13.273438 -0.128906 12.613281 0.03125 11.9375 0.125 C 11.269531 0.21875 10.625 0.265625 10 0.265625 C 8.75 0.265625 7.585938 0.0546875 6.515625 -0.359375 C 5.441406 -0.773438 4.503906 -1.382812 3.703125 -2.1875 C 2.910156 -3 2.285156 -4.003906 1.828125 -5.203125 C 1.378906 -6.398438 1.15625 -7.785156 1.15625 -9.359375 C 1.15625 -10.585938 1.351562 -11.738281 1.75 -12.8125 C 2.144531 -13.894531 2.710938 -14.832031 3.453125 -15.625 C 4.191406 -16.425781 5.09375 -17.0625 6.15625 -17.53125 C 7.226562 -18 8.4375 -18.234375 9.78125 -18.234375 C 10.914062 -18.234375 11.957031 -18.050781 12.90625 -17.6875 C 13.863281 -17.332031 14.6875 -16.804688 15.375 -16.109375 C 16.070312 -15.410156 16.613281 -14.554688 17 -13.546875 C 17.394531 -12.546875 17.59375 -11.394531 17.59375 -10.09375 C 17.59375 -9.445312 17.519531 -9.007812 17.375 -8.78125 C 17.238281 -8.550781 16.972656 -8.4375 16.578125 -8.4375 Z M 5.453125 -8.4375 "/></g></g></g><g fill="#424242" fill-opacity="1"><g transform="translate(133.306074, 350.624977)"><g><path d="M 6.21875 -14.84375 C 6.769531 -15.914062 7.429688 -16.753906 8.203125 -17.359375 C 8.972656 -17.972656 9.882812 -18.28125 10.9375 -18.28125 C 11.769531 -18.28125 12.4375 -18.101562 12.9375 -17.75 L 12.65625 -14.5 C 12.59375 -14.289062 12.503906 -14.144531 12.390625 -14.0625 C 12.285156 -13.976562 12.140625 -13.9375 11.953125 -13.9375 C 11.773438 -13.9375 11.515625 -13.960938 11.171875 -14.015625 C 10.828125 -14.078125 10.492188 -14.109375 10.171875 -14.109375 C 9.691406 -14.109375 9.265625 -14.035156 8.890625 -13.890625 C 8.515625 -13.753906 8.175781 -13.550781 7.875 -13.28125 C 7.582031 -13.019531 7.320312 -12.703125 7.09375 -12.328125 C 6.863281 -11.960938 6.648438 -11.539062 6.453125 -11.0625 L 6.453125 0 L 2.140625 0 L 2.140625 -17.953125 L 4.671875 -17.953125 C 5.117188 -17.953125 5.425781 -17.875 5.59375 -17.71875 C 5.769531 -17.5625 5.890625 -17.28125 5.953125 -16.875 Z M 6.21875 -14.84375 "/></g></g></g><g fill="#424242" fill-opacity="1"><g transform="translate(146.358128, 350.624977)"><g><path d="M 6.21875 -14.84375 C 6.769531 -15.914062 7.429688 -16.753906 8.203125 -17.359375 C 8.972656 -17.972656 9.882812 -18.28125 10.9375 -18.28125 C 11.769531 -18.28125 12.4375 -18.101562 12.9375 -17.75 L 12.65625 -14.5 C 12.59375 -14.289062 12.503906 -14.144531 12.390625 -14.0625 C 12.285156 -13.976562 12.140625 -13.9375 11.953125 -13.9375 C 11.773438 -13.9375 11.515625 -13.960938 11.171875 -14.015625 C 10.828125 -14.078125 10.492188 -14.109375 10.171875 -14.109375 C 9.691406 -14.109375 9.265625 -14.035156 8.890625 -13.890625 C 8.515625 -13.753906 8.175781 -13.550781 7.875 -13.28125 C 7.582031 -13.019531 7.320312 -12.703125 7.09375 -12.328125 C 6.863281 -11.960938 6.648438 -11.539062 6.453125 -11.0625 L 6.453125 0 L 2.140625 0 L 2.140625 -17.953125 L 4.671875 -17.953125 C 5.117188 -17.953125 5.425781 -17.875 5.59375 -17.71875 C 5.769531 -17.5625 5.890625 -17.28125 5.953125 -16.875 Z M 6.21875 -14.84375 "/></g></g></g><g fill="#424242" fill-opacity="1"><g transform="translate(159.410182, 350.624977)"><g><path d="M 10.078125 -18.234375 C 11.410156 -18.234375 12.617188 -18.015625 13.703125 -17.578125 C 14.796875 -17.148438 15.726562 -16.539062 16.5 -15.75 C 17.28125 -14.957031 17.878906 -13.988281 18.296875 -12.84375 C 18.722656 -11.695312 18.9375 -10.421875 18.9375 -9.015625 C 18.9375 -7.585938 18.722656 -6.300781 18.296875 -5.15625 C 17.878906 -4.019531 17.28125 -3.046875 16.5 -2.234375 C 15.726562 -1.429688 14.796875 -0.8125 13.703125 -0.375 C 12.617188 0.0507812 11.410156 0.265625 10.078125 0.265625 C 8.734375 0.265625 7.515625 0.0507812 6.421875 -0.375 C 5.328125 -0.8125 4.390625 -1.429688 3.609375 -2.234375 C 2.835938 -3.046875 2.238281 -4.019531 1.8125 -5.15625 C 1.382812 -6.300781 1.171875 -7.585938 1.171875 -9.015625 C 1.171875 -10.421875 1.382812 -11.695312 1.8125 -12.84375 C 2.238281 -13.988281 2.835938 -14.957031 3.609375 -15.75 C 4.390625 -16.539062 5.328125 -17.148438 6.421875 -17.578125 C 7.515625 -18.015625 8.734375 -18.234375 10.078125 -18.234375 Z M 10.078125 -3.0625 C 11.566406 -3.0625 12.671875 -3.5625 13.390625 -4.5625 C 14.109375 -5.570312 14.46875 -7.046875 14.46875 -8.984375 C 14.46875 -10.910156 14.109375 -12.378906 13.390625 -13.390625 C 12.671875 -14.410156 11.566406 -14.921875 10.078125 -14.921875 C 8.566406 -14.921875 7.445312 -14.410156 6.71875 -13.390625 C 5.988281 -12.367188 5.625 -10.898438 5.625 -8.984375 C 5.625 -7.054688 5.988281 -5.585938 6.71875 -4.578125 C 7.445312 -3.566406 8.566406 -3.0625 10.078125 -3.0625 Z M 10.078125 -3.0625 "/></g></g></g><g fill="#424242" fill-opacity="1"><g transform="translate(179.513147, 350.624977)"><g><path d="M 6.21875 -14.84375 C 6.769531 -15.914062 7.429688 -16.753906 8.203125 -17.359375 C 8.972656 -17.972656 9.882812 -18.28125 10.9375 -18.28125 C 11.769531 -18.28125 12.4375 -18.101562 12.9375 -17.75 L 12.65625 -14.5 C 12.59375 -14.289062 12.503906 -14.144531 12.390625 -14.0625 C 12.285156 -13.976562 12.140625 -13.9375 11.953125 -13.9375 C 11.773438 -13.9375 11.515625 -13.960938 11.171875 -14.015625 C 10.828125 -14.078125 10.492188 -14.109375 10.171875 -14.109375 C 9.691406 -14.109375 9.265625 -14.035156 8.890625 -13.890625 C 8.515625 -13.753906 8.175781 -13.550781 7.875 -13.28125 C 7.582031 -13.019531 7.320312 -12.703125 7.09375 -12.328125 C 6.863281 -11.960938 6.648438 -11.539062 6.453125 -11.0625 L 6.453125 0 L 2.140625 0 L 2.140625 -17.953125 L 4.671875 -17.953125 C 5.117188 -17.953125 5.425781 -17.875 5.59375 -17.71875 C 5.769531 -17.5625 5.890625 -17.28125 5.953125 -16.875 Z M 6.21875 -14.84375 "/></g></g></g><g fill="#424242" fill-opacity="1"><g transform="translate(192.565201, 350.624977)"><g/></g></g><g fill="#424242" fill-opacity="1"><g transform="translate(201.068275, 350.624977)"><g><path d="M 10.078125 -18.234375 C 11.410156 -18.234375 12.617188 -18.015625 13.703125 -17.578125 C 14.796875 -17.148438 15.726562 -16.539062 16.5 -15.75 C 17.28125 -14.957031 17.878906 -13.988281 18.296875 -12.84375 C 18.722656 -11.695312 18.9375 -10.421875 18.9375 -9.015625 C 18.9375 -7.585938 18.722656 -6.300781 18.296875 -5.15625 C 17.878906 -4.019531 17.28125 -3.046875 16.5 -2.234375 C 15.726562 -1.429688 14.796875 -0.8125 13.703125 -0.375 C 12.617188 0.0507812 11.410156 0.265625 10.078125 0.265625 C 8.734375 0.265625 7.515625 0.0507812 6.421875 -0.375 C 5.328125 -0.8125 4.390625 -1.429688 3.609375 -2.234375 C 2.835938 -3.046875 2.238281 -4.019531 1.8125 -5.15625 C 1.382812 -6.300781 1.171875 -7.585938 1.171875 -9.015625 C 1.171875 -10.421875 1.382812 -11.695312 1.8125 -12.84375 C 2.238281 -13.988281 2.835938 -14.957031 3.609375 -15.75 C 4.390625 -16.539062 5.328125 -17.148438 6.421875 -17.578125 C 7.515625 -18.015625 8.734375 -18.234375 10.078125 -18.234375 Z M 10.078125 -3.0625 C 11.566406 -3.0625 12.671875 -3.5625 13.390625 -4.5625 C 14.109375 -5.570312 14.46875 -7.046875 14.46875 -8.984375 C 14.46875 -10.910156 14.109375 -12.378906 13.390625 -13.390625 C 12.671875 -14.410156 11.566406 -14.921875 10.078125 -14.921875 C 8.566406 -14.921875 7.445312 -14.410156 6.71875 -13.390625 C 5.988281 -12.367188 5.625 -10.898438 5.625 -8.984375 C 5.625 -7.054688 5.988281 -5.585938 6.71875 -4.578125 C 7.445312 -3.566406 8.566406 -3.0625 10.078125 -3.0625 Z M 10.078125 -3.0625 "/></g></g></g><g fill="#424242" fill-opacity="1"><g transform="translate(221.17124, 350.624977)"><g><path d="M 15 -14.15625 C 14.875 -13.988281 14.75 -13.859375 14.625 -13.765625 C 14.5 -13.671875 14.320312 -13.625 14.09375 -13.625 C 13.863281 -13.625 13.644531 -13.691406 13.4375 -13.828125 C 13.226562 -13.960938 12.976562 -14.113281 12.6875 -14.28125 C 12.394531 -14.457031 12.046875 -14.609375 11.640625 -14.734375 C 11.242188 -14.867188 10.75 -14.9375 10.15625 -14.9375 C 9.394531 -14.9375 8.726562 -14.800781 8.15625 -14.53125 C 7.582031 -14.257812 7.101562 -13.863281 6.71875 -13.34375 C 6.34375 -12.832031 6.0625 -12.210938 5.875 -11.484375 C 5.6875 -10.753906 5.59375 -9.929688 5.59375 -9.015625 C 5.59375 -8.054688 5.695312 -7.203125 5.90625 -6.453125 C 6.113281 -5.710938 6.410156 -5.085938 6.796875 -4.578125 C 7.179688 -4.066406 7.644531 -3.679688 8.1875 -3.421875 C 8.738281 -3.160156 9.359375 -3.03125 10.046875 -3.03125 C 10.734375 -3.03125 11.289062 -3.113281 11.71875 -3.28125 C 12.144531 -3.445312 12.503906 -3.628906 12.796875 -3.828125 C 13.085938 -4.035156 13.335938 -4.222656 13.546875 -4.390625 C 13.765625 -4.566406 14.007812 -4.65625 14.28125 -4.65625 C 14.632812 -4.65625 14.894531 -4.519531 15.0625 -4.25 L 16.3125 -2.671875 C 15.832031 -2.117188 15.3125 -1.648438 14.75 -1.265625 C 14.1875 -0.890625 13.601562 -0.585938 13 -0.359375 C 12.40625 -0.128906 11.789062 0.03125 11.15625 0.125 C 10.519531 0.21875 9.882812 0.265625 9.25 0.265625 C 8.144531 0.265625 7.101562 0.0546875 6.125 -0.359375 C 5.144531 -0.773438 4.285156 -1.378906 3.546875 -2.171875 C 2.816406 -2.960938 2.238281 -3.929688 1.8125 -5.078125 C 1.382812 -6.234375 1.171875 -7.546875 1.171875 -9.015625 C 1.171875 -10.328125 1.359375 -11.546875 1.734375 -12.671875 C 2.117188 -13.804688 2.675781 -14.78125 3.40625 -15.59375 C 4.144531 -16.414062 5.054688 -17.0625 6.140625 -17.53125 C 7.222656 -18 8.472656 -18.234375 9.890625 -18.234375 C 11.234375 -18.234375 12.40625 -18.015625 13.40625 -17.578125 C 14.414062 -17.148438 15.328125 -16.535156 16.140625 -15.734375 Z M 15 -14.15625 "/></g></g></g><g fill="#424242" fill-opacity="1"><g transform="translate(238.037427, 350.624977)"><g><path d="M 15 -14.15625 C 14.875 -13.988281 14.75 -13.859375 14.625 -13.765625 C 14.5 -13.671875 14.320312 -13.625 14.09375 -13.625 C 13.863281 -13.625 13.644531 -13.691406 13.4375 -13.828125 C 13.226562 -13.960938 12.976562 -14.113281 12.6875 -14.28125 C 12.394531 -14.457031 12.046875 -14.609375 11.640625 -14.734375 C 11.242188 -14.867188 10.75 -14.9375 10.15625 -14.9375 C 9.394531 -14.9375 8.726562 -14.800781 8.15625 -14.53125 C 7.582031 -14.257812 7.101562 -13.863281 6.71875 -13.34375 C 6.34375 -12.832031 6.0625 -12.210938 5.875 -11.484375 C 5.6875 -10.753906 5.59375 -9.929688 5.59375 -9.015625 C 5.59375 -8.054688 5.695312 -7.203125 5.90625 -6.453125 C 6.113281 -5.710938 6.410156 -5.085938 6.796875 -4.578125 C 7.179688 -4.066406 7.644531 -3.679688 8.1875 -3.421875 C 8.738281 -3.160156 9.359375 -3.03125 10.046875 -3.03125 C 10.734375 -3.03125 11.289062 -3.113281 11.71875 -3.28125 C 12.144531 -3.445312 12.503906 -3.628906 12.796875 -3.828125 C 13.085938 -4.035156 13.335938 -4.222656 13.546875 -4.390625 C 13.765625 -4.566406 14.007812 -4.65625 14.28125 -4.65625 C 14.632812 -4.65625 14.894531 -4.519531 15.0625 -4.25 L 16.3125 -2.671875 C 15.832031 -2.117188 15.3125 -1.648438 14.75 -1.265625 C 14.1875 -0.890625 13.601562 -0.585938 13 -0.359375 C 12.40625 -0.128906 11.789062 0.03125 11.15625 0.125 C 10.519531 0.21875 9.882812 0.265625 9.25 0.265625 C 8.144531 0.265625 7.101562 0.0546875 6.125 -0.359375 C 5.144531 -0.773438 4.285156 -1.378906 3.546875 -2.171875 C 2.816406 -2.960938 2.238281 -3.929688 1.8125 -5.078125 C 1.382812 -6.234375 1.171875 -7.546875 1.171875 -9.015625 C 1.171875 -10.328125 1.359375 -11.546875 1.734375 -12.671875 C 2.117188 -13.804688 2.675781 -14.78125 3.40625 -15.59375 C 4.144531 -16.414062 5.054688 -17.0625 6.140625 -17.53125 C 7.222656 -18 8.472656 -18.234375 9.890625 -18.234375 C 11.234375 -18.234375 12.40625 -18.015625 13.40625 -17.578125 C 14.414062 -17.148438 15.328125 -16.535156 16.140625 -15.734375 Z M 15 -14.15625 "/></g></g></g><g fill="#424242" fill-opacity="1"><g transform="translate(254.903614, 350.624977)"><g><path d="M 17.609375 -17.953125 L 17.609375 0 L 14.96875 0 C 14.394531 0 14.03125 -0.257812 13.875 -0.78125 L 13.578125 -2.21875 C 12.847656 -1.476562 12.035156 -0.875 11.140625 -0.40625 C 10.253906 0.0507812 9.210938 0.28125 8.015625 0.28125 C 7.035156 0.28125 6.164062 0.113281 5.40625 -0.21875 C 4.65625 -0.550781 4.023438 -1.019531 3.515625 -1.625 C 3.003906 -2.226562 2.613281 -2.945312 2.34375 -3.78125 C 2.082031 -4.625 1.953125 -5.546875 1.953125 -6.546875 L 1.953125 -17.953125 L 6.28125 -17.953125 L 6.28125 -6.546875 C 6.28125 -5.453125 6.535156 -4.601562 7.046875 -4 C 7.554688 -3.394531 8.316406 -3.09375 9.328125 -3.09375 C 10.078125 -3.09375 10.773438 -3.257812 11.421875 -3.59375 C 12.078125 -3.925781 12.695312 -4.382812 13.28125 -4.96875 L 13.28125 -17.953125 Z M 17.609375 -17.953125 "/></g></g></g><g fill="#424242" fill-opacity="1"><g transform="translate(274.639155, 350.624977)"><g><path d="M 6.21875 -14.84375 C 6.769531 -15.914062 7.429688 -16.753906 8.203125 -17.359375 C 8.972656 -17.972656 9.882812 -18.28125 10.9375 -18.28125 C 11.769531 -18.28125 12.4375 -18.101562 12.9375 -17.75 L 12.65625 -14.5 C 12.59375 -14.289062 12.503906 -14.144531 12.390625 -14.0625 C 12.285156 -13.976562 12.140625 -13.9375 11.953125 -13.9375 C 11.773438 -13.9375 11.515625 -13.960938 11.171875 -14.015625 C 10.828125 -14.078125 10.492188 -14.109375 10.171875 -14.109375 C 9.691406 -14.109375 9.265625 -14.035156 8.890625 -13.890625 C 8.515625 -13.753906 8.175781 -13.550781 7.875 -13.28125 C 7.582031 -13.019531 7.320312 -12.703125 7.09375 -12.328125 C 6.863281 -11.960938 6.648438 -11.539062 6.453125 -11.0625 L 6.453125 0 L 2.140625 0 L 2.140625 -17.953125 L 4.671875 -17.953125 C 5.117188 -17.953125 5.425781 -17.875 5.59375 -17.71875 C 5.769531 -17.5625 5.890625 -17.28125 5.953125 -16.875 Z M 6.21875 -14.84375 "/></g></g></g><g fill="#424242" fill-opacity="1"><g transform="translate(287.691209, 350.624977)"><g><path d="M 13.09375 -14.453125 C 12.976562 -14.265625 12.851562 -14.132812 12.71875 -14.0625 C 12.59375 -13.988281 12.429688 -13.953125 12.234375 -13.953125 C 12.023438 -13.953125 11.800781 -14.007812 11.5625 -14.125 C 11.320312 -14.238281 11.039062 -14.367188 10.71875 -14.515625 C 10.40625 -14.660156 10.046875 -14.789062 9.640625 -14.90625 C 9.242188 -15.019531 8.769531 -15.078125 8.21875 -15.078125 C 7.375 -15.078125 6.707031 -14.894531 6.21875 -14.53125 C 5.738281 -14.175781 5.5 -13.707031 5.5 -13.125 C 5.5 -12.738281 5.625 -12.414062 5.875 -12.15625 C 6.125 -11.894531 6.453125 -11.664062 6.859375 -11.46875 C 7.273438 -11.269531 7.742188 -11.085938 8.265625 -10.921875 C 8.796875 -10.765625 9.332031 -10.59375 9.875 -10.40625 C 10.414062 -10.21875 10.945312 -10.003906 11.46875 -9.765625 C 12 -9.535156 12.472656 -9.234375 12.890625 -8.859375 C 13.304688 -8.492188 13.640625 -8.050781 13.890625 -7.53125 C 14.140625 -7.019531 14.265625 -6.40625 14.265625 -5.6875 C 14.265625 -4.820312 14.109375 -4.023438 13.796875 -3.296875 C 13.484375 -2.566406 13.023438 -1.9375 12.421875 -1.40625 C 11.816406 -0.875 11.066406 -0.457031 10.171875 -0.15625 C 9.285156 0.132812 8.257812 0.28125 7.09375 0.28125 C 6.46875 0.28125 5.859375 0.222656 5.265625 0.109375 C 4.679688 0.00390625 4.117188 -0.144531 3.578125 -0.34375 C 3.035156 -0.539062 2.53125 -0.773438 2.0625 -1.046875 C 1.601562 -1.316406 1.203125 -1.609375 0.859375 -1.921875 L 1.859375 -3.5625 C 1.984375 -3.769531 2.132812 -3.925781 2.3125 -4.03125 C 2.488281 -4.132812 2.707031 -4.1875 2.96875 -4.1875 C 3.238281 -4.1875 3.492188 -4.109375 3.734375 -3.953125 C 3.972656 -3.804688 4.25 -3.644531 4.5625 -3.46875 C 4.882812 -3.289062 5.253906 -3.125 5.671875 -2.96875 C 6.097656 -2.820312 6.640625 -2.75 7.296875 -2.75 C 7.804688 -2.75 8.242188 -2.804688 8.609375 -2.921875 C 8.984375 -3.046875 9.289062 -3.207031 9.53125 -3.40625 C 9.769531 -3.601562 9.941406 -3.832031 10.046875 -4.09375 C 10.160156 -4.363281 10.21875 -4.640625 10.21875 -4.921875 C 10.21875 -5.335938 10.09375 -5.679688 9.84375 -5.953125 C 9.59375 -6.222656 9.257812 -6.457031 8.84375 -6.65625 C 8.425781 -6.851562 7.953125 -7.03125 7.421875 -7.1875 C 6.890625 -7.34375 6.347656 -7.515625 5.796875 -7.703125 C 5.242188 -7.890625 4.703125 -8.109375 4.171875 -8.359375 C 3.640625 -8.609375 3.164062 -8.925781 2.75 -9.3125 C 2.34375 -9.695312 2.007812 -10.164062 1.75 -10.71875 C 1.5 -11.28125 1.375 -11.957031 1.375 -12.75 C 1.375 -13.488281 1.519531 -14.191406 1.8125 -14.859375 C 2.101562 -15.523438 2.53125 -16.101562 3.09375 -16.59375 C 3.664062 -17.09375 4.375 -17.488281 5.21875 -17.78125 C 6.070312 -18.082031 7.050781 -18.234375 8.15625 -18.234375 C 9.394531 -18.234375 10.519531 -18.03125 11.53125 -17.625 C 12.550781 -17.21875 13.394531 -16.679688 14.0625 -16.015625 Z M 13.09375 -14.453125 "/></g></g></g><g fill="#424242" fill-opacity="1"><g transform="translate(303.070236, 350.624977)"><g><path d="M 6.96875 -25.3125 L 6.96875 -15.296875 C 6.96875 -14.234375 6.914062 -13.191406 6.8125 -12.171875 C 6.707031 -11.148438 6.570312 -10.066406 6.40625 -8.921875 L 3.46875 -8.921875 C 3.300781 -10.066406 3.164062 -11.148438 3.0625 -12.171875 C 2.957031 -13.191406 2.90625 -14.234375 2.90625 -15.296875 L 2.90625 -25.3125 Z M 2.21875 -2.375 C 2.21875 -2.738281 2.285156 -3.082031 2.421875 -3.40625 C 2.554688 -3.738281 2.742188 -4.019531 2.984375 -4.25 C 3.222656 -4.488281 3.503906 -4.675781 3.828125 -4.8125 C 4.160156 -4.945312 4.507812 -5.015625 4.875 -5.015625 C 5.238281 -5.015625 5.582031 -4.945312 5.90625 -4.8125 C 6.238281 -4.675781 6.523438 -4.488281 6.765625 -4.25 C 7.003906 -4.019531 7.191406 -3.738281 7.328125 -3.40625 C 7.472656 -3.082031 7.546875 -2.738281 7.546875 -2.375 C 7.546875 -2 7.472656 -1.648438 7.328125 -1.328125 C 7.191406 -1.015625 7.003906 -0.738281 6.765625 -0.5 C 6.523438 -0.269531 6.238281 -0.0859375 5.90625 0.046875 C 5.582031 0.179688 5.238281 0.25 4.875 0.25 C 4.507812 0.25 4.160156 0.179688 3.828125 0.046875 C 3.503906 -0.0859375 3.222656 -0.269531 2.984375 -0.5 C 2.742188 -0.738281 2.554688 -1.015625 2.421875 -1.328125 C 2.285156 -1.648438 2.21875 -2 2.21875 -2.375 Z M 2.21875 -2.375 "/></g></g></g></svg>